HIERARCHY
ROOT Hips
{
	OFFSET 0.00000 0.00000 0.00000
	CHANNELS 6 Xposition Yposition Zposition Zrotation Yrotation Xrotation 
	JOINT LHipJoint
	{
		OFFSET 0 0 0
		CHANNELS 3 Zrotation Yrotation Xrotation
		JOINT LeftHip
		{
			OFFSET 1.28858 -1.83292 1.03970
			CHANNELS 3 Zrotation Yrotation Xrotation
			JOINT LeftKnee
			{
				OFFSET 2.47846 -6.80952 0.00000
				CHANNELS 3 Zrotation Yrotation Xrotation
				JOINT LeftAnkle
				{
					OFFSET 2.75274 -7.56311 0.00000
					CHANNELS 3 Zrotation Yrotation Xrotation
					JOINT LeftToe
					{
						OFFSET 0.12848 -0.35301 1.68223
						CHANNELS 3 Zrotation Yrotation Xrotation
						End Site
						{
							OFFSET 0.00000 -0.00000 0.87311
						}
					}
				}
			}
		}
	}
	JOINT RHipJoint
	{
		OFFSET 0 0 0
		CHANNELS 3 Zrotation Yrotation Xrotation
		JOINT RightHip
		{
			OFFSET -1.31183 -1.83292 1.03970
			CHANNELS 3 Zrotation Yrotation Xrotation
			JOINT RightKnee
			{
				OFFSET -2.44740 -6.72417 0.00000
				CHANNELS 3 Zrotation Yrotation Xrotation
				JOINT RightAnkle
				{
					OFFSET -2.67343 -7.34519 0.00000
					CHANNELS 3 Zrotation Yrotation Xrotation
					JOINT RightToe
					{
						OFFSET -0.16914 -0.46471 1.77626
						CHANNELS 3 Zrotation Yrotation Xrotation
						End Site
						{
							OFFSET -0.00000 -0.00000 0.92777
						}
					}
				}
			}
		}
	}
	JOINT lowerback
	{
		OFFSET 0 0 0
		CHANNELS 3 Zrotation Yrotation Xrotation
		JOINT Chest
		{
			OFFSET 0.01249 2.14252 0.03842
			CHANNELS 3 Zrotation Yrotation Xrotation
			JOINT Chest2
			{
				OFFSET -0.02957 2.14199 -0.03751
				CHANNELS 3 Zrotation Yrotation Xrotation
				JOINT lowerneck
				{
					OFFSET 0 0 0
					CHANNELS 3 Zrotation Yrotation Xrotation
					JOINT Neck
					{
						OFFSET -0.01678 1.65709 -0.05476
						CHANNELS 3 Zrotation Yrotation Xrotation
						JOINT Head
						{
							OFFSET 0.07912 1.58331 -0.11843
							CHANNELS 3 Zrotation Yrotation Xrotation
							End Site
							{
								OFFSET 0.03298 1.73940 -0.04271
							}
						}
					}
				}
				JOINT LeftCollar
				{
					OFFSET 0 0 0
					CHANNELS 3 Zrotation Yrotation Xrotation
					JOINT LeftShoulder
					{
						OFFSET 3.39556 1.16496 0.08673
CHANNELS 3 Zrotation Xrotation Yrotation
						JOINT LeftElbow
						{
OFFSET 0 -5.239100 -0.000000
CHANNELS 3 Zrotation Xrotation Yrotation
							JOINT LeftWrist
							{
OFFSET 0 -3.314670 0.000000
CHANNELS 3 Zrotation Xrotation Yrotation
								JOINT lhand
								{
									OFFSET 0 0 0
CHANNELS 3 Zrotation Xrotation Yrotation
									JOINT LFingers
									{
OFFSET 0 -0.965900 0.000000
CHANNELS 3 Zrotation Xrotation Yrotation
										End Site
										{
OFFSET 0 -0.778730 0.000000
										}
									}
								}
								JOINT LThumb
								{
OFFSET 0 0.000000 0.000000
CHANNELS 3 Zrotation Xrotation Yrotation
									End Site
									{
OFFSET 0 -0.790620 0.790620
									}
								}
							}
						}
					}
				}
				JOINT RightCollar
				{
					OFFSET 0 0 0
					CHANNELS 3 Zrotation Yrotation Xrotation
					JOINT RightShoulder
					{
						OFFSET -3.27193 1.31331 0.33940
CHANNELS 3 Zrotation Xrotation Yrotation
						JOINT RightElbow
						{
OFFSET 0 -5.302520 0.000000
CHANNELS 3 Zrotation Xrotation Yrotation
							JOINT RightWrist
							{
OFFSET 0 -3.678750 0.000000
CHANNELS 3 Zrotation Xrotation Yrotation
								JOINT rhand
								{
									OFFSET 0 0 0
CHANNELS 3 Zrotation Xrotation Yrotation
									JOINT RFingers
									{
OFFSET 0 -0.594810 0.000000
CHANNELS 3 Zrotation Xrotation Yrotation
										End Site
										{
OFFSET 0 -0.479550 0.000000
										}
									}
								}
								JOINT RThumb
								{
OFFSET 0 0.000000 0.000000
CHANNELS 3 Zrotation Xrotation Yrotation
									End Site
									{
OFFSET 0 -0.486870 0.486870
									}
								}
							}
						}
					}
				}
			}
		}
	}
}
MOTION
Frames: 11
Frame Time: 0.008333333333333333
6.508400 18.094300 -32.270500 1.245400 0.298800 3.744900 0.000000 0.000000 0.000000 -18.112700 -0.747300 1.100400 0.016100 0.818500 2.249500 -0.047900 -6.379400 -3.069100 0.000000 0.000000 0.000000 0.000000 0.000000 0.000000 20.093600 8.033100 6.698900 -0.002900 -0.347700 0.955200 -0.675600 -10.800800 -22.961900 -0.001400 -0.243300 0.668400 -0.514600 0.577300 -8.093700 -1.205900 0.863700 -0.691500 -0.861600 0.429100 3.833600 -0.725200 -2.063800 2.115400 4.191700 -2.845800 2.889400 1.415000 -1.410300 0.611000 -0.000000 0.000000 0.000000 6.275100 4.407800 -33.065700 10.918700 -18.163600 1.750500 3.996900 -7.745900 11.612600 0.000000 0.000000 0.000000 -7.125000 0.000000 0.000000 -16.108500 18.574800 -10.563100 -0.000000 0.000000 0.000000 -2.382400 12.104200 12.756100 -10.065800 -16.842400 -1.494000 11.737100 11.422900 26.340300 0.000000 0.000000 0.000000 7.125000 0.000000 -0.000000 41.355400 51.461100 -7.694000
6.503610 18.095883 -32.269982 1.142046 0.366793 3.744777 0.000000 0.000000 0.000000 -17.909079 -0.729280 1.009223 0.018842 0.885180 2.433023 -0.047934 -6.429331 -3.118319 0.000000 0.000000 0.000000 0.000000 0.000000 0.000000 20.358231 8.501623 6.981321 -0.001655 -0.264568 0.726872 -0.664428 -11.243352 -23.289833 -0.003976 -0.403335 1.108118 -0.410899 0.694924 -8.006496 -1.235198 1.010458 -0.734383 -0.934844 0.503909 3.744503 -0.422329 -1.840316 1.985652 4.059165 -2.535388 2.734693 1.320369 -1.253230 0.570215 0.000000 0.000000 0.000000 6.594301 4.494791 -33.765544 10.938916 -18.194511 1.756780 4.063671 -8.144582 11.090427 0.000000 0.000000 0.000000 -7.125000 0.000000 0.000000 -16.107478 19.075492 -10.374711 0.000000 0.000000 0.000000 -2.186401 12.369032 12.393685 -10.110222 -16.911760 -1.506835 11.788133 11.186944 26.071083 0.000000 0.000000 0.000000 7.125000 0.000000 0.000000 41.195644 51.240934 -7.405069
6.502052 18.094406 -32.264892 1.093404 0.387556 3.750926 0.000000 0.000000 0.000000 -17.834976 -0.744188 0.991651 0.019848 0.909483 2.499834 -0.048266 -6.473006 -3.149332 0.000000 0.000000 0.000000 0.000000 0.000000 0.000000 20.461398 8.635943 6.942884 -0.002683 -0.333663 0.916724 -0.696350 -11.162579 -23.492474 -0.005638 -0.484242 1.330569 -0.307285 0.787408 -8.043284 -1.270478 1.125889 -0.758506 -1.016452 0.562990 3.744332 -0.080518 -1.683380 2.026348 3.769348 -2.309773 2.593373 1.171448 -1.140799 0.505804 0.000000 0.000000 0.000000 6.803605 4.469118 -33.982294 10.837135 -18.038156 1.725185 4.021722 -8.262034 10.835508 0.000000 0.000000 0.000000 -7.125000 0.000000 0.000000 -16.158482 19.322053 -10.317473 0.000000 0.000000 0.000000 -2.025699 12.538298 11.840718 -10.119935 -16.926937 -1.509663 11.878348 11.227506 25.893422 0.000000 0.000000 0.000000 7.125000 0.000000 0.000000 41.138954 51.086194 -7.215392
6.501248 18.094359 -32.260319 1.042090 0.488970 3.747917 0.000000 0.000000 0.000000 -17.759907 -0.757267 0.990000 0.020093 0.916108 2.518073 -0.052826 -6.554677 -3.080878 0.000000 0.000000 0.000000 0.000000 0.000000 0.000000 20.527732 8.545017 6.911170 -0.003193 -0.364081 1.000484 -0.696584 -11.171356 -23.502809 -0.004016 -0.407062 1.118417 -0.186649 0.850546 -8.082777 -1.306425 1.200594 -0.790465 -1.112821 0.602148 3.737820 0.081762 -1.523443 2.142106 3.709748 -2.087824 2.496592 1.126167 -1.031018 0.449559 0.000000 0.000000 0.000000 6.951940 4.470392 -33.791382 10.698439 -17.824506 1.682490 3.910698 -7.758633 10.637808 0.000000 0.000000 0.000000 -7.125000 0.000000 0.000000 -16.252356 19.515059 -10.309256 0.000000 0.000000 0.000000 -1.875738 12.652698 11.324065 -10.145971 -16.967561 -1.517228 12.186346 11.228105 26.214263 0.000000 0.000000 0.000000 7.125000 0.000000 0.000000 41.641497 51.285972 -7.564599
6.499416 18.095948 -32.257188 1.058845 0.572868 3.705127 0.000000 0.000000 0.000000 -17.766081 -0.698441 1.007577 0.020248 0.918438 2.524371 -0.057671 -6.612012 -2.981130 2.282549 9.429931 27.150798 0.000000 0.000000 0.000000 20.511876 8.436544 6.934337 -0.003269 -0.370024 1.016690 -0.670976 -11.207011 -23.312219 -0.006868 -0.531130 1.459380 -0.178342 0.878936 -8.039251 -1.325848 1.238614 -0.746914 -1.133684 0.621412 3.759944 0.105594 -1.301632 1.976304 3.686120 -1.791541 2.452703 1.113249 -0.881782 0.457171 0.000000 0.000000 0.000000 7.037955 4.322632 -33.373942 10.578192 -17.638811 1.645832 3.770597 -6.832626 10.639039 0.000000 0.000000 0.000000 -7.125000 0.000000 0.000000 -16.348530 19.517450 -10.374573 0.000000 0.000000 0.000000 -1.855618 12.568243 11.126887 -10.104211 -16.902389 -1.505120 12.414777 10.944430 26.828591 0.000000 0.000000 0.000000 7.125000 0.000000 0.000000 42.308887 51.724987 -8.246032
6.497403 18.096984 -32.254905 1.164175 0.614230 3.671946 0.000000 0.000000 0.000000 -17.890682 -0.741506 1.036683 0.020842 0.931836 2.561377 -0.061229 -6.647635 -2.900332 2.486299 9.811879 28.370502 0.000000 0.000000 0.000000 20.390770 8.371096 6.917344 -0.004076 -0.412315 1.133010 -0.666960 -11.150096 -23.221628 -0.010618 -0.665601 1.829211 -0.246200 0.935887 -7.966529 -1.401497 1.323015 -0.733660 -1.165443 0.662854 3.734994 0.290829 -1.169229 1.729695 3.499014 -1.614409 2.515483 1.021843 -0.789026 0.510072 0.000000 0.000000 0.000000 7.209017 4.188409 -33.270566 10.463456 -17.461234 1.611267 3.864398 -6.496248 10.805811 0.000000 0.000000 0.000000 -7.125000 0.000000 0.000000 -16.269091 19.354641 -10.381743 0.000000 0.000000 0.000000 -1.732692 12.601944 10.647079 -10.060854 -16.834727 -1.492547 13.852491 9.933337 27.582408 0.000000 0.000000 0.000000 7.125000 0.000000 0.000000 44.122641 52.054262 -9.136701
6.497690 18.098045 -32.250648 1.201408 0.713090 3.649117 0.000000 0.000000 0.000000 -17.939816 -0.764790 1.053563 0.021373 0.944633 2.596592 -0.064576 -6.707661 -2.852836 2.558697 9.943791 28.794866 0.000000 0.000000 0.000000 20.371756 8.392393 6.947205 -0.004473 -0.432536 1.188597 -0.677627 -11.182234 -23.347086 -0.012408 -0.719978 1.978671 -0.268996 0.978070 -7.839702 -1.426955 1.379091 -0.843851 -1.175642 0.690257 3.550999 0.451643 -1.089321 1.625943 3.289216 -1.509621 2.712589 0.928847 -0.732521 0.582222 0.000000 0.000000 0.000000 7.335957 4.328302 -33.310465 10.383638 -17.337476 1.587390 3.944518 -6.382337 11.109500 0.000000 0.000000 0.000000 -7.125000 0.000000 0.000000 -16.187317 19.060463 -10.436201 0.000000 0.000000 0.000000 -1.707135 12.938588 10.472178 -10.134452 -16.949698 -1.513970 14.804378 9.107473 27.620207 0.000000 0.000000 0.000000 7.125000 0.000000 0.000000 44.952309 51.916218 -9.201042
6.498292 18.095183 -32.243644 1.101022 0.886329 3.678912 0.000000 0.000000 0.000000 -17.808612 -0.745964 1.023765 0.021204 0.940883 2.586230 -0.072647 -6.764440 -2.638430 2.620004 10.052936 29.148390 0.000000 0.000000 0.000000 20.515011 8.383234 6.946023 -0.004500 -0.431990 1.187015 -0.692002 -11.257503 -23.546061 -0.015530 -0.803908 2.209404 -0.153083 0.965440 -7.875315 -1.387480 1.350550 -0.893982 -1.202840 0.677314 3.520119 0.564320 -0.989544 1.410158 3.025288 -1.380585 2.961243 0.827387 -0.663330 0.688682 0.000000 0.000000 0.000000 7.410832 4.378790 -33.183308 10.314379 -17.229812 1.566797 4.195961 -6.438647 11.329576 0.000000 0.000000 0.000000 -7.125000 0.000000 0.000000 -15.996501 18.841358 -10.384517 0.000000 0.000000 0.000000 -1.790800 13.014211 10.407676 -10.153933 -16.979937 -1.519574 14.705724 8.976537 27.515421 0.000000 0.000000 0.000000 7.125000 0.000000 0.000000 44.784529 51.853866 -9.076399
6.497106 18.092667 -32.240371 1.055973 0.979825 3.704076 0.000000 0.000000 0.000000 -17.742476 -0.742868 0.977443 0.021797 0.952688 2.618583 -0.076781 -6.836121 -2.575995 2.554919 9.936755 28.772433 0.000000 0.000000 0.000000 20.570758 8.317393 6.908327 -0.004403 -0.429039 1.178917 -0.700390 -11.241272 -23.603461 -0.018359 -0.873884 2.401942 -0.097255 0.981968 -7.960036 -1.379903 1.368274 -0.882387 -1.223074 0.686958 3.580993 0.636851 -0.933575 1.341639 2.878609 -1.304093 2.992660 0.769876 -0.624395 0.706689 0.000000 0.000000 0.000000 7.499869 4.339255 -33.083702 10.303341 -17.212680 1.563517 4.566042 -6.677922 11.198528 0.000000 0.000000 0.000000 -7.125000 0.000000 0.000000 -15.754363 18.956799 -10.172167 0.000000 0.000000 0.000000 -1.803138 12.935985 10.199553 -10.229450 -17.097663 -1.541741 11.824548 10.790570 25.789094 0.000000 0.000000 0.000000 7.125000 0.000000 0.000000 41.051127 50.987645 -7.182454
6.498410 18.092577 -32.238111 1.131778 1.075766 3.716984 0.000000 0.000000 0.000000 -17.845196 -0.747619 0.985849 0.021423 0.945164 2.597856 -0.080340 -6.893218 -2.518116 2.547272 9.923333 28.728878 0.000000 0.000000 0.000000 20.447768 8.188231 6.870168 -0.003982 -0.408676 1.122844 -0.698237 -11.193494 -23.538792 -0.020654 -0.928266 2.551416 -0.122227 1.019654 -8.015478 -1.434191 1.423141 -0.889714 -1.258345 0.714242 3.606411 0.687837 -0.944837 1.437410 2.826934 -1.312729 2.876314 0.745722 -0.630756 0.654273 0.000000 0.000000 0.000000 7.629044 4.338491 -33.055458 10.306344 -17.217326 1.564441 4.724527 -6.744864 11.068136 0.000000 0.000000 0.000000 -7.125000 0.000000 0.000000 -15.656584 19.077979 -10.059869 0.000000 0.000000 0.000000 -1.794065 12.955376 10.039245 -10.263918 -17.151297 -1.551879 12.468451 10.147948 26.527733 0.000000 0.000000 0.000000 7.125000 0.000000 0.000000 42.142597 51.468675 -7.956975
6.499147 18.094505 -32.235742 1.213870 1.172382 3.691234 0.000000 0.000000 0.000000 -17.951213 -0.731937 1.020863 0.021395 0.944893 2.597243 -0.084510 -6.935717 -2.422044 2.591749 10.002686 28.985505 0.000000 0.000000 0.000000 20.336917 8.078670 6.867465 -0.004432 -0.430846 1.183770 -0.703662 -11.157145 -23.551412 -0.022358 -0.964713 2.651755 -0.202293 0.977818 -7.900714 -1.416028 1.372517 -0.899697 -1.202061 0.687814 3.528423 0.684276 -0.915171 1.184488 2.643703 -1.275083 2.934579 0.689161 -0.610568 0.711939 0.000000 0.000000 0.000000 7.635543 4.353515 -32.838664 10.347150 -17.280814 1.576487 4.951326 -6.782330 10.655440 0.000000 0.000000 0.000000 -7.125000 0.000000 0.000000 -15.534854 19.469898 -9.833902 0.000000 0.000000 0.000000 -2.013791 12.947221 10.348677 -10.320579 -17.239395 -1.568655 12.478311 9.431296 26.706114 0.000000 0.000000 0.000000 7.125000 0.000000 0.000000 42.279432 51.611115 -8.136323
